<svg width="20" height="20" viewBox="0 0 20 20" fill="none" xmlns="http://www.w3.org/2000/svg">
<path d="M10 1C14.9706 1 19 5.02944 19 10C19 14.9706 14.9706 19 10 19C5.02944 19 1 14.9706 1 10C1 5.02944 5.02944 1 10 1Z" stroke="#E71E2A" stroke-width="2"/>
<path d="M10 0.5C15.2467 0.5 19.5 4.75329 19.5 10C19.5 15.2467 15.2467 19.5 10 19.5C4.75329 19.5 0.5 15.2467 0.5 10C0.5 4.75329 4.75329 0.5 10 0.5Z" stroke="#E71E2A"/>
<path d="M10.4167 0.416656L10.4167 19.4167" stroke="#E71E2A" stroke-width="2"/>
<line y1="-1" x2="9.38821" y2="-1" transform="matrix(0.726996 0.686642 -0.694043 0.719934 9.6875 10.5167)" stroke="#E71E2A" stroke-width="2"/>
</svg>
