<svg width="100%" height="100%" viewBox="0 0 26 26" fill="none" xmlns="http://www.w3.org/2000/svg">
<path d="M12.9999 3.25C19.2832 3.25 24.376 7.21933 24.376 12.1171C24.376 17.0138 19.2832 20.9831 13.001 20.9831C12.3755 20.982 11.7506 20.9422 11.1301 20.8639L6.35473 23.9872C5.81198 24.2743 5.62023 24.2428 5.84339 23.5398L6.80973 19.5553C3.68973 17.9736 1.62598 15.2328 1.62598 12.1171C1.62598 7.22042 6.71764 3.25 13.001 3.25M19.4013 11.9817L20.9938 10.439C21.0857 10.3436 21.137 10.2162 21.1368 10.0837C21.1366 9.95123 21.0851 9.82399 20.993 9.72878C20.9008 9.63357 20.7754 9.57783 20.643 9.5733C20.5105 9.56877 20.3816 9.61581 20.2831 9.7045L18.1945 11.726V10.0555C18.1945 9.91989 18.1406 9.78983 18.0447 9.69393C17.9488 9.59804 17.8188 9.54417 17.6831 9.54417C17.5475 9.54417 17.4175 9.59804 17.3216 9.69393C17.2257 9.78983 17.1718 9.91989 17.1718 10.0555V12.8256C17.1538 12.9047 17.1538 12.9869 17.1718 13.0661V14.625C17.1718 14.7606 17.2257 14.8907 17.3216 14.9866C17.4175 15.0825 17.5475 15.1363 17.6831 15.1363C17.8188 15.1363 17.9488 15.0825 18.0447 14.9866C18.1406 14.8907 18.1945 14.7606 18.1945 14.625V13.1484L18.6571 12.701L20.2041 14.9034C20.2427 14.9584 20.2918 15.0052 20.3485 15.0413C20.4052 15.0773 20.4685 15.1018 20.5347 15.1133C20.6009 15.1249 20.6687 15.1233 20.7343 15.1087C20.7999 15.094 20.8619 15.0666 20.9169 15.028C20.9719 14.9894 21.0187 14.9403 21.0547 14.8836C21.0908 14.8268 21.1152 14.7636 21.1268 14.6974C21.1384 14.6312 21.1368 14.5634 21.1222 14.4978C21.1075 14.4322 21.0801 14.3702 21.0415 14.3152L19.4013 11.9817ZM16.1968 14.066H14.6151V10.0718C14.6091 9.94035 14.5526 9.81634 14.4575 9.72549C14.3624 9.63464 14.2359 9.58395 14.1044 9.58395C13.9728 9.58395 13.8463 9.63464 13.7512 9.72549C13.6561 9.81634 13.5996 9.94035 13.5936 10.0718V14.5773C13.5936 14.859 13.8211 15.0887 14.1038 15.0887H16.1968C16.3324 15.0887 16.4625 15.0348 16.5584 14.9389C16.6543 14.843 16.7081 14.7129 16.7081 14.5773C16.7081 14.4417 16.6543 14.3117 16.5584 14.2158C16.4625 14.1199 16.3324 14.066 16.1968 14.066ZM9.85173 12.8841L10.6057 11.0338L11.2969 12.883L9.85173 12.8841ZM12.585 13.4117L12.5871 13.3943C12.5868 13.2655 12.5376 13.1417 12.4496 13.0477L11.3164 10.0143C11.2689 9.86978 11.1784 9.74317 11.057 9.65141C10.9357 9.55965 10.7892 9.50712 10.6371 9.50083C10.4841 9.50076 10.3347 9.54698 10.2084 9.6334C10.0822 9.71983 9.98503 9.84242 9.92973 9.98508L8.12923 14.3997C8.07794 14.5252 8.07863 14.666 8.13115 14.7911C8.18367 14.9161 8.28371 15.0152 8.40927 15.0665C8.53483 15.1177 8.67561 15.1171 8.80066 15.0645C8.92571 15.012 9.02477 14.912 9.07606 14.7864L9.43573 13.9057H11.6782L12.0011 14.7723C12.0231 14.8371 12.0579 14.8968 12.1034 14.9479C12.1489 14.999 12.2042 15.0404 12.266 15.0698C12.3279 15.0991 12.3949 15.1157 12.4633 15.1186C12.5317 15.1216 12.5999 15.1107 12.664 15.0868C12.7281 15.0629 12.7868 15.0263 12.8365 14.9793C12.8862 14.9323 12.926 14.8758 12.9535 14.8131C12.9809 14.7505 12.9956 14.6829 12.9965 14.6145C12.9974 14.5461 12.9845 14.4782 12.9587 14.4148L12.585 13.4117ZM8.98506 10.0772C8.98535 10.01 8.97235 9.9435 8.94682 9.8814C8.9213 9.8193 8.88374 9.76287 8.83631 9.71535C8.78889 9.66782 8.73254 9.63015 8.67049 9.60449C8.60845 9.57883 8.54195 9.56569 8.47481 9.56583H4.95939C4.82378 9.56583 4.69372 9.61971 4.59783 9.7156C4.50193 9.81149 4.44806 9.94155 4.44806 10.0772C4.44806 10.2128 4.50193 10.3428 4.59783 10.4387C4.69372 10.5346 4.82378 10.5885 4.95939 10.5885H6.21606V14.6358C6.21606 14.7714 6.26993 14.9015 6.36583 14.9974C6.46172 15.0933 6.59178 15.1472 6.72739 15.1472C6.86301 15.1472 6.99307 15.0933 7.08896 14.9974C7.18485 14.9015 7.23873 14.7714 7.23873 14.6358V10.5885H8.47373C8.54096 10.5888 8.60758 10.5758 8.66974 10.5502C8.73191 10.5246 8.78839 10.4869 8.83593 10.4394C8.88347 10.3918 8.92113 10.3354 8.94672 10.2732C8.97232 10.211 8.98535 10.1444 8.98506 10.0772Z" fill="black"/>
</svg>
