<svg width="100%" height="100%" viewBox="0 0 32 32" fill="none" xmlns="http://www.w3.org/2000/svg">
<path d="M13.3333 5.33333L14.276 4.39066L13.3333 3.448L12.3907 4.39066L13.3333 5.33333ZM24 28C24.3536 28 24.6928 27.8595 24.9428 27.6095C25.1929 27.3594 25.3333 27.0203 25.3333 26.6667C25.3333 26.313 25.1929 25.9739 24.9428 25.7239C24.6928 25.4738 24.3536 25.3333 24 25.3333V28ZM20.9427 11.0573L14.276 4.39066L12.3907 6.276L19.0573 12.9427L20.9427 11.0573ZM12.3907 4.39066L5.724 11.0573L7.60933 12.9427L14.276 6.276L12.3907 4.39066ZM12 5.33333V18.6667H14.6667V5.33333H12ZM21.3333 28H24V25.3333H21.3333V28ZM12 18.6667C12 21.142 12.9833 23.516 14.7337 25.2663C16.484 27.0167 18.858 28 21.3333 28V25.3333C19.5652 25.3333 17.8695 24.631 16.6193 23.3807C15.369 22.1305 14.6667 20.4348 14.6667 18.6667H12Z" fill="black"/>
</svg>
