<svg width="328" height="70" viewBox="0 0 328 70" fill="none" xmlns="http://www.w3.org/2000/svg">
<path d="M1.28 54.312V19.304L0 12.84L1.28 9H24.32C27.776 9 30.7413 9.55467 33.216 10.664C35.6907 11.7733 37.5893 13.5653 38.912 16.04C40.2347 18.472 40.896 21.6933 40.896 25.704C40.896 31.72 39.2747 36.0507 36.032 38.696C32.832 41.2987 28.288 42.6 22.4 42.6H15.36V44.008L16 50.408L15.36 54.312H1.28ZM15.36 30.632H19.072C20.5653 30.632 21.8453 30.568 22.912 30.44C24.0213 30.312 24.8747 29.928 25.472 29.288C26.0693 28.6053 26.368 27.5173 26.368 26.024C26.368 24.4453 26.048 23.3147 25.408 22.632C24.768 21.9493 23.872 21.544 22.72 21.416C21.6107 21.2453 20.3093 21.16 18.816 21.16H14.72L15.36 30.632Z" fill="currentColor"/>
<path d="M82.604 54.952C79.4467 54.952 76.5667 54.4613 73.964 53.48C71.404 52.4987 69.3774 50.856 67.884 48.552C66.3907 46.248 65.644 43.1333 65.644 39.208C65.644 36.1787 66.156 33.6613 67.18 31.656C68.204 29.6507 69.548 28.0507 71.212 26.856C72.876 25.6187 74.6893 24.744 76.652 24.232C78.6573 23.72 80.6414 23.464 82.604 23.464C84.9507 23.464 86.9347 23.5707 88.556 23.784C90.1774 23.9547 91.3293 24.0827 92.012 24.168L97.004 29.8L91.244 38.056L83.884 34.344C82.9454 34.344 82.1133 34.6853 81.388 35.368C80.6627 36.0507 80.3 37.3307 80.3 39.208C80.3 41.1707 80.7267 42.472 81.58 43.112C82.476 43.752 83.6707 44.072 85.164 44.072C87.8094 44.072 90.092 43.7307 92.012 43.048C93.932 42.3227 95.3614 41.7467 96.3 41.32V52.456C94.6787 53.2667 92.6307 53.8853 90.156 54.312C87.724 54.7387 85.2067 54.952 82.604 54.952Z" fill="currentColor"/>
<path d="M103.456 54.312V19.24L102.112 12.84L103.456 9H117.664V19.24L116.96 35.816H118.176L121.76 24.104H137.376V27.944L130.272 37.672L135.008 44.072L141.024 50.536V54.312H126.048L120.096 43.752L117.664 44.392V54.312H103.456Z" fill="currentColor"/>
<path d="M146.797 54.312V19.304L145.517 12.904L146.861 9.064H161.773L174.317 31.464H175.597L185.965 9.064H201.261L201.901 12.904L201.261 19.048V54.312H187.117L187.309 48.872V31.016H186.605L184.173 37.736L179.565 47.912H169.325L161.773 31.016H161.133V36.2L161.773 54.312H146.797Z" fill="currentColor"/>
<path d="M224.619 54.952C221.334 54.952 218.347 54.4827 215.659 53.544C213.014 52.5627 210.902 50.9413 209.323 48.68C207.787 46.376 207.019 43.2187 207.019 39.208C207.019 36.392 207.488 33.9813 208.427 31.976C209.408 29.9707 210.71 28.3493 212.331 27.112C213.952 25.832 215.766 24.9147 217.771 24.36C219.776 23.7627 221.846 23.464 223.979 23.464C226.667 23.464 228.907 23.6347 230.699 23.976C232.534 24.3173 234.006 24.7013 235.115 25.128C236.224 25.5547 237.078 25.9387 237.675 26.28L240.875 36.456L239.595 40.424H221.035C221.206 41.6187 221.824 42.6427 222.891 43.496C223.958 44.3067 225.814 44.712 228.459 44.712C230.976 44.712 233.067 44.4347 234.731 43.88C236.395 43.3253 237.59 42.8987 238.315 42.6V52.456C237.462 52.9253 236.288 53.352 234.795 53.736C233.302 54.12 231.659 54.4187 229.867 54.632C228.118 54.8453 226.368 54.952 224.619 54.952ZM220.843 36.264L227.371 35.048L226.795 33C226.198 32.6587 225.472 32.488 224.619 32.488C223.211 32.488 222.208 32.872 221.611 33.64C221.056 34.408 220.8 35.2827 220.843 36.264Z" fill="currentColor"/>
<path d="M266.058 54.952C258.591 54.952 253.215 53.4587 249.93 50.472C246.644 47.4427 245.001 42.6 245.001 35.944V19.304L245.066 12.84L245.001 9H259.338V32.744C259.338 34.7067 259.487 36.456 259.786 37.992C260.084 39.4853 260.724 40.6587 261.706 41.512C262.687 42.3653 264.18 42.792 266.186 42.792C268.234 42.792 269.748 42.408 270.73 41.64C271.711 40.872 272.351 39.7413 272.65 38.248C272.948 36.7547 273.098 34.92 273.098 32.744V9H287.114V35.944C287.114 40.296 286.41 43.88 285.002 46.696C283.594 49.4693 281.354 51.5387 278.282 52.904C275.21 54.2693 271.135 54.952 266.058 54.952Z" fill="currentColor"/>
<path d="M294.142 69.864V34.984L292.862 27.944L294.846 24.04H306.942V26.792L307.582 27.112C307.582 27.112 307.859 26.792 308.414 26.152C308.968 25.512 309.8 24.8933 310.91 24.296C312.062 23.656 313.534 23.336 315.326 23.336C319.123 23.336 322.088 24.552 324.222 26.984C326.398 29.416 327.486 33.256 327.486 38.504C327.486 42.4293 326.931 45.608 325.822 48.04C324.755 50.4293 323.304 52.1573 321.47 53.224C319.635 54.2907 317.587 54.824 315.326 54.824C312.68 54.824 310.824 54.5893 309.758 54.12C308.734 53.608 308.222 53.352 308.222 53.352V69.864H294.142ZM309.886 44.008C310.91 44.008 311.742 43.624 312.382 42.856C313.064 42.088 313.406 40.8293 313.406 39.08C313.406 37.5867 313.043 36.456 312.318 35.688C311.635 34.8773 310.483 34.472 308.862 34.472L308.222 35.112V43.176C308.222 43.176 308.35 43.3253 308.606 43.624C308.904 43.88 309.331 44.008 309.886 44.008Z" fill="currentColor"/>
<path d="M39.3478 52.1783C43.6281 52.1783 49.8321 54.3145 53.2049 56.9497C56.5778 59.5848 55.8422 61.7211 51.562 61.7211C47.2818 61.7211 41.0778 59.5848 37.7049 56.9497C34.3321 54.3145 35.0676 52.1783 39.3478 52.1783Z" stroke="#DC143C" stroke-width="1.5"/>
<line y1="-0.75" x2="16.4688" y2="-0.75" transform="matrix(0.788011 0.615662 -1 0 38.4349 51.8801)" stroke="#DC143C" stroke-width="1.5"/>
<line y1="-0.75" x2="8.01881" y2="-0.75" transform="matrix(1.26748 0.425022 -0.120244 0.445416 45.6079 57.2767)" stroke="#DC143C" stroke-width="1.5"/>
<path d="M42.2669 52.296L51.1509 57.6323L66.1163 14.668L53.1288 6.87485L42.2669 52.296Z" fill="currentColor"/>
<path d="M49.0778 55.2467L50.4304 56.3268L66.6936 12.9806L61.8892 10.0248L49.0778 55.2467ZM45.6452 53.1376L42.9018 51.4443L53.6484 4.94888L58.4614 7.91028L45.6452 53.1376Z" fill="currentColor"/>
<path d="M52.4638 5.944C51.614 8.00417 52.5715 10.432 54.6111 11.3532L62.6477 14.994C64.6815 15.9159 67.0309 14.9874 67.8837 12.923C68.7354 10.8637 67.7734 8.43601 65.7348 7.51751L57.6963 3.87584C55.6594 2.95356 53.3183 3.87575 52.4638 5.944Z" fill="currentColor"/>
<path d="M51.0944 38.5841C47.4168 37.4717 43.8305 38.6545 43.0827 41.2397L40.1324 51.4626C39.3866 54.052 41.2395 56.9792 44.9151 58.1083C48.5907 59.2323 52.7103 58.1167 53.456 55.5221L56.4044 45.3003C57.1502 42.7214 54.781 39.71 51.0944 38.5841Z" fill="currentColor"/>
</svg>
